<mxfile host="app.diagrams.net" agent="Mozilla/5.0 (Windows NT 10.0; Win64; x64) AppleWebKit/537.36 (KHTML, like Gecko) Chrome/133.0.0.0 Safari/537.36" version="26.1.0">
  <diagram name="Página-1" id="rJBwSx3UtINKIOgSs01Y">
    <mxGraphModel dx="1050" dy="522" grid="1" gridSize="10" guides="1" tooltips="1" connect="1" arrows="1" fold="1" page="1" pageScale="1" pageWidth="827" pageHeight="1169" math="0" shadow="0">
      <root>
        <mxCell id="0" />
        <mxCell id="1" parent="0" />
        <mxCell id="8CnZV-VfPtxuRmqjGz2y-3" value="" style="rounded=0;whiteSpace=wrap;html=1;" parent="1" vertex="1">
          <mxGeometry x="209" y="100" width="410" height="710" as="geometry" />
        </mxCell>
        <mxCell id="8CnZV-VfPtxuRmqjGz2y-5" value="Caso de uso MoveGo" style="text;html=1;align=center;verticalAlign=middle;whiteSpace=wrap;rounded=0;" parent="1" vertex="1">
          <mxGeometry x="361" y="50" width="106" height="30" as="geometry" />
        </mxCell>
        <mxCell id="8CnZV-VfPtxuRmqjGz2y-24" style="rounded=0;orthogonalLoop=1;jettySize=auto;html=1;entryX=1;entryY=0.5;entryDx=0;entryDy=0;exitX=0;exitY=0.3333333333333333;exitDx=0;exitDy=0;exitPerimeter=0;" parent="1" source="8CnZV-VfPtxuRmqjGz2y-6" target="8CnZV-VfPtxuRmqjGz2y-19" edge="1">
          <mxGeometry relative="1" as="geometry" />
        </mxCell>
        <mxCell id="8CnZV-VfPtxuRmqjGz2y-25" style="rounded=0;orthogonalLoop=1;jettySize=auto;html=1;entryX=1;entryY=0.5;entryDx=0;entryDy=0;exitX=0;exitY=0.3333333333333333;exitDx=0;exitDy=0;exitPerimeter=0;" parent="1" source="8CnZV-VfPtxuRmqjGz2y-6" target="8CnZV-VfPtxuRmqjGz2y-23" edge="1">
          <mxGeometry relative="1" as="geometry" />
        </mxCell>
        <mxCell id="8CnZV-VfPtxuRmqjGz2y-48" style="rounded=0;orthogonalLoop=1;jettySize=auto;html=1;exitX=0;exitY=0.3333333333333333;exitDx=0;exitDy=0;exitPerimeter=0;entryX=1;entryY=0.5;entryDx=0;entryDy=0;" parent="1" source="8CnZV-VfPtxuRmqjGz2y-6" target="8CnZV-VfPtxuRmqjGz2y-44" edge="1">
          <mxGeometry relative="1" as="geometry" />
        </mxCell>
        <mxCell id="8CnZV-VfPtxuRmqjGz2y-49" style="rounded=0;orthogonalLoop=1;jettySize=auto;html=1;exitX=0;exitY=0.3333333333333333;exitDx=0;exitDy=0;exitPerimeter=0;entryX=1;entryY=0.5;entryDx=0;entryDy=0;" parent="1" source="8CnZV-VfPtxuRmqjGz2y-6" target="8CnZV-VfPtxuRmqjGz2y-41" edge="1">
          <mxGeometry relative="1" as="geometry" />
        </mxCell>
        <mxCell id="8CnZV-VfPtxuRmqjGz2y-50" style="rounded=0;orthogonalLoop=1;jettySize=auto;html=1;exitX=0;exitY=0.3333333333333333;exitDx=0;exitDy=0;exitPerimeter=0;entryX=1;entryY=0.5;entryDx=0;entryDy=0;" parent="1" source="8CnZV-VfPtxuRmqjGz2y-6" target="8CnZV-VfPtxuRmqjGz2y-43" edge="1">
          <mxGeometry relative="1" as="geometry" />
        </mxCell>
        <mxCell id="8CnZV-VfPtxuRmqjGz2y-51" style="rounded=0;orthogonalLoop=1;jettySize=auto;html=1;exitX=0;exitY=0.3333333333333333;exitDx=0;exitDy=0;exitPerimeter=0;entryX=1;entryY=0.5;entryDx=0;entryDy=0;" parent="1" source="8CnZV-VfPtxuRmqjGz2y-6" target="8CnZV-VfPtxuRmqjGz2y-42" edge="1">
          <mxGeometry relative="1" as="geometry" />
        </mxCell>
        <mxCell id="8CnZV-VfPtxuRmqjGz2y-6" value="Sistema" style="shape=umlActor;verticalLabelPosition=bottom;verticalAlign=top;html=1;" parent="1" vertex="1">
          <mxGeometry x="710" y="260" width="40" height="80" as="geometry" />
        </mxCell>
        <mxCell id="8CnZV-VfPtxuRmqjGz2y-45" style="rounded=0;orthogonalLoop=1;jettySize=auto;html=1;exitX=1;exitY=0.3333333333333333;exitDx=0;exitDy=0;exitPerimeter=0;entryX=0;entryY=0.5;entryDx=0;entryDy=0;" parent="1" source="8CnZV-VfPtxuRmqjGz2y-7" target="8CnZV-VfPtxuRmqjGz2y-40" edge="1">
          <mxGeometry relative="1" as="geometry" />
        </mxCell>
        <mxCell id="8CnZV-VfPtxuRmqjGz2y-46" style="rounded=0;orthogonalLoop=1;jettySize=auto;html=1;exitX=1;exitY=0.3333333333333333;exitDx=0;exitDy=0;exitPerimeter=0;entryX=0;entryY=0.5;entryDx=0;entryDy=0;" parent="1" source="8CnZV-VfPtxuRmqjGz2y-7" target="8CnZV-VfPtxuRmqjGz2y-39" edge="1">
          <mxGeometry relative="1" as="geometry" />
        </mxCell>
        <mxCell id="8CnZV-VfPtxuRmqjGz2y-7" value="Administrador&lt;div&gt;&lt;br&gt;&lt;/div&gt;" style="shape=umlActor;verticalLabelPosition=bottom;verticalAlign=top;html=1;" parent="1" vertex="1">
          <mxGeometry x="120" y="470" width="40" height="80" as="geometry" />
        </mxCell>
        <mxCell id="8CnZV-VfPtxuRmqjGz2y-22" style="rounded=0;orthogonalLoop=1;jettySize=auto;html=1;exitX=1;exitY=0.3333333333333333;exitDx=0;exitDy=0;exitPerimeter=0;" parent="1" source="8CnZV-VfPtxuRmqjGz2y-8" target="8CnZV-VfPtxuRmqjGz2y-12" edge="1">
          <mxGeometry relative="1" as="geometry" />
        </mxCell>
        <mxCell id="8CnZV-VfPtxuRmqjGz2y-28" style="rounded=0;orthogonalLoop=1;jettySize=auto;html=1;exitX=1;exitY=0.3333333333333333;exitDx=0;exitDy=0;exitPerimeter=0;" parent="1" source="8CnZV-VfPtxuRmqjGz2y-8" target="8CnZV-VfPtxuRmqjGz2y-13" edge="1">
          <mxGeometry relative="1" as="geometry" />
        </mxCell>
        <mxCell id="8CnZV-VfPtxuRmqjGz2y-29" style="rounded=0;orthogonalLoop=1;jettySize=auto;html=1;entryX=0;entryY=0.5;entryDx=0;entryDy=0;exitX=1;exitY=0.3333333333333333;exitDx=0;exitDy=0;exitPerimeter=0;" parent="1" source="8CnZV-VfPtxuRmqjGz2y-8" target="8CnZV-VfPtxuRmqjGz2y-14" edge="1">
          <mxGeometry relative="1" as="geometry" />
        </mxCell>
        <mxCell id="8CnZV-VfPtxuRmqjGz2y-30" style="rounded=0;orthogonalLoop=1;jettySize=auto;html=1;entryX=0;entryY=0.5;entryDx=0;entryDy=0;exitX=1;exitY=0.3333333333333333;exitDx=0;exitDy=0;exitPerimeter=0;" parent="1" source="8CnZV-VfPtxuRmqjGz2y-8" target="8CnZV-VfPtxuRmqjGz2y-16" edge="1">
          <mxGeometry relative="1" as="geometry" />
        </mxCell>
        <mxCell id="8CnZV-VfPtxuRmqjGz2y-31" style="rounded=0;orthogonalLoop=1;jettySize=auto;html=1;entryX=0;entryY=0.5;entryDx=0;entryDy=0;exitX=1;exitY=0.3333333333333333;exitDx=0;exitDy=0;exitPerimeter=0;" parent="1" source="8CnZV-VfPtxuRmqjGz2y-8" target="8CnZV-VfPtxuRmqjGz2y-15" edge="1">
          <mxGeometry relative="1" as="geometry" />
        </mxCell>
        <mxCell id="8CnZV-VfPtxuRmqjGz2y-32" style="rounded=0;orthogonalLoop=1;jettySize=auto;html=1;entryX=0;entryY=0.5;entryDx=0;entryDy=0;exitX=1;exitY=0.3333333333333333;exitDx=0;exitDy=0;exitPerimeter=0;" parent="1" source="8CnZV-VfPtxuRmqjGz2y-8" target="8CnZV-VfPtxuRmqjGz2y-18" edge="1">
          <mxGeometry relative="1" as="geometry" />
        </mxCell>
        <mxCell id="8CnZV-VfPtxuRmqjGz2y-33" style="rounded=0;orthogonalLoop=1;jettySize=auto;html=1;entryX=0;entryY=0;entryDx=0;entryDy=0;exitX=1;exitY=0.3333333333333333;exitDx=0;exitDy=0;exitPerimeter=0;" parent="1" source="8CnZV-VfPtxuRmqjGz2y-8" target="8CnZV-VfPtxuRmqjGz2y-17" edge="1">
          <mxGeometry relative="1" as="geometry" />
        </mxCell>
        <mxCell id="8CnZV-VfPtxuRmqjGz2y-8" value="Usuário" style="shape=umlActor;verticalLabelPosition=bottom;verticalAlign=top;html=1;" parent="1" vertex="1">
          <mxGeometry x="120" y="110" width="40" height="80" as="geometry" />
        </mxCell>
        <mxCell id="8CnZV-VfPtxuRmqjGz2y-55" style="rounded=0;orthogonalLoop=1;jettySize=auto;html=1;exitX=1;exitY=1;exitDx=0;exitDy=0;entryX=0.5;entryY=0;entryDx=0;entryDy=0;dashed=1;" parent="1" source="8CnZV-VfPtxuRmqjGz2y-12" target="8CnZV-VfPtxuRmqjGz2y-23" edge="1">
          <mxGeometry relative="1" as="geometry" />
        </mxCell>
        <mxCell id="8CnZV-VfPtxuRmqjGz2y-12" value="Cadastro/login" style="ellipse;whiteSpace=wrap;html=1;" parent="1" vertex="1">
          <mxGeometry x="450" y="103" width="100" height="50" as="geometry" />
        </mxCell>
        <mxCell id="8CnZV-VfPtxuRmqjGz2y-13" value="Consultar Horários de Ônibus" style="ellipse;whiteSpace=wrap;html=1;" parent="1" vertex="1">
          <mxGeometry x="260" y="190" width="110" height="50" as="geometry" />
        </mxCell>
        <mxCell id="8CnZV-VfPtxuRmqjGz2y-14" value="Visualizar Paradas Próximas" style="ellipse;whiteSpace=wrap;html=1;" parent="1" vertex="1">
          <mxGeometry x="321" y="140" width="113" height="45" as="geometry" />
        </mxCell>
        <mxCell id="8CnZV-VfPtxuRmqjGz2y-47" style="rounded=0;orthogonalLoop=1;jettySize=auto;html=1;exitX=0.5;exitY=1;exitDx=0;exitDy=0;entryX=0;entryY=0;entryDx=0;entryDy=0;endArrow=none;startFill=1;dashed=1;endFill=1;startArrow=classicThin;" parent="1" source="8CnZV-VfPtxuRmqjGz2y-15" target="8CnZV-VfPtxuRmqjGz2y-44" edge="1">
          <mxGeometry relative="1" as="geometry" />
        </mxCell>
        <mxCell id="8CnZV-VfPtxuRmqjGz2y-15" value="Planejar Rota" style="ellipse;whiteSpace=wrap;html=1;" parent="1" vertex="1">
          <mxGeometry x="401" y="185" width="100" height="30" as="geometry" />
        </mxCell>
        <mxCell id="8CnZV-VfPtxuRmqjGz2y-16" value="Receber Alertas de Atraso" style="ellipse;whiteSpace=wrap;html=1;" parent="1" vertex="1">
          <mxGeometry x="220" y="330" width="120" height="40" as="geometry" />
        </mxCell>
        <mxCell id="RWw8REf5lrwNztSIqT9k-1" style="rounded=0;orthogonalLoop=1;jettySize=auto;html=1;exitX=0.5;exitY=0;exitDx=0;exitDy=0;dashed=1;" edge="1" parent="1" source="8CnZV-VfPtxuRmqjGz2y-17" target="8CnZV-VfPtxuRmqjGz2y-13">
          <mxGeometry relative="1" as="geometry" />
        </mxCell>
        <mxCell id="RWw8REf5lrwNztSIqT9k-3" style="rounded=0;orthogonalLoop=1;jettySize=auto;html=1;exitX=1;exitY=0;exitDx=0;exitDy=0;entryX=0;entryY=1;entryDx=0;entryDy=0;dashed=1;" edge="1" parent="1" source="8CnZV-VfPtxuRmqjGz2y-17" target="8CnZV-VfPtxuRmqjGz2y-15">
          <mxGeometry relative="1" as="geometry" />
        </mxCell>
        <mxCell id="8CnZV-VfPtxuRmqjGz2y-17" value="Pesquisar Linha de Ônibus" style="ellipse;whiteSpace=wrap;html=1;" parent="1" vertex="1">
          <mxGeometry x="220" y="278" width="120" height="40" as="geometry" />
        </mxCell>
        <mxCell id="8CnZV-VfPtxuRmqjGz2y-18" value="Visualizar Localização em Tempo Real" style="ellipse;whiteSpace=wrap;html=1;" parent="1" vertex="1">
          <mxGeometry x="220" y="390" width="120" height="50" as="geometry" />
        </mxCell>
        <mxCell id="8CnZV-VfPtxuRmqjGz2y-19" value="Gerenciar Cadastro de Usuários" style="ellipse;whiteSpace=wrap;html=1;" parent="1" vertex="1">
          <mxGeometry x="490" y="228" width="120" height="50" as="geometry" />
        </mxCell>
        <mxCell id="8CnZV-VfPtxuRmqjGz2y-23" value="Autenticar Login" style="ellipse;whiteSpace=wrap;html=1;" parent="1" vertex="1">
          <mxGeometry x="520" y="170" width="80" height="30" as="geometry" />
        </mxCell>
        <mxCell id="8CnZV-VfPtxuRmqjGz2y-39" value="Gerenciar Linhas e Horários" style="ellipse;whiteSpace=wrap;html=1;" parent="1" vertex="1">
          <mxGeometry x="225" y="480" width="110" height="40" as="geometry" />
        </mxCell>
        <mxCell id="8CnZV-VfPtxuRmqjGz2y-40" value="Gerenciar Paradas" style="ellipse;whiteSpace=wrap;html=1;" parent="1" vertex="1">
          <mxGeometry x="237" y="545" width="80" height="40" as="geometry" />
        </mxCell>
        <mxCell id="8CnZV-VfPtxuRmqjGz2y-52" style="rounded=0;orthogonalLoop=1;jettySize=auto;html=1;exitX=0;exitY=0;exitDx=0;exitDy=0;entryX=1;entryY=1;entryDx=0;entryDy=0;dashed=1;" parent="1" source="8CnZV-VfPtxuRmqjGz2y-41" target="8CnZV-VfPtxuRmqjGz2y-17" edge="1">
          <mxGeometry relative="1" as="geometry" />
        </mxCell>
        <mxCell id="8CnZV-VfPtxuRmqjGz2y-41" value="Atualizar Dados de Horários e Linhas de Ônibus" style="ellipse;whiteSpace=wrap;html=1;" parent="1" vertex="1">
          <mxGeometry x="400" y="355" width="120" height="50" as="geometry" />
        </mxCell>
        <mxCell id="8CnZV-VfPtxuRmqjGz2y-53" style="rounded=0;orthogonalLoop=1;jettySize=auto;html=1;exitX=0;exitY=0;exitDx=0;exitDy=0;entryX=1;entryY=1;entryDx=0;entryDy=0;dashed=1;" parent="1" source="8CnZV-VfPtxuRmqjGz2y-42" target="8CnZV-VfPtxuRmqjGz2y-16" edge="1">
          <mxGeometry relative="1" as="geometry" />
        </mxCell>
        <mxCell id="8CnZV-VfPtxuRmqjGz2y-42" value="Enviar Notificações de Atraso ou Mudança" style="ellipse;whiteSpace=wrap;html=1;" parent="1" vertex="1">
          <mxGeometry x="390" y="430" width="140" height="40" as="geometry" />
        </mxCell>
        <mxCell id="8CnZV-VfPtxuRmqjGz2y-54" style="rounded=0;orthogonalLoop=1;jettySize=auto;html=1;exitX=0;exitY=0.5;exitDx=0;exitDy=0;entryX=1;entryY=1;entryDx=0;entryDy=0;dashed=1;" parent="1" source="8CnZV-VfPtxuRmqjGz2y-43" target="8CnZV-VfPtxuRmqjGz2y-18" edge="1">
          <mxGeometry relative="1" as="geometry" />
        </mxCell>
        <mxCell id="8CnZV-VfPtxuRmqjGz2y-43" value="Atualizar Localização de Ônibus em Tempo Real" style="ellipse;whiteSpace=wrap;html=1;" parent="1" vertex="1">
          <mxGeometry x="400" y="490" width="140" height="40" as="geometry" />
        </mxCell>
        <mxCell id="8CnZV-VfPtxuRmqjGz2y-44" value="Realizar Planejamento de Rota" style="ellipse;whiteSpace=wrap;html=1;" parent="1" vertex="1">
          <mxGeometry x="452" y="285" width="110" height="50" as="geometry" />
        </mxCell>
        <mxCell id="8CnZV-VfPtxuRmqjGz2y-58" value="&amp;lt;&amp;lt;include&amp;gt;&amp;gt;" style="text;html=1;align=center;verticalAlign=middle;whiteSpace=wrap;rounded=0;" parent="1" vertex="1">
          <mxGeometry x="520" y="140" width="60" height="30" as="geometry" />
        </mxCell>
        <mxCell id="8CnZV-VfPtxuRmqjGz2y-59" value="&amp;lt;&amp;lt;extends&amp;gt;&amp;gt;" style="text;html=1;align=center;verticalAlign=middle;whiteSpace=wrap;rounded=0;" parent="1" vertex="1">
          <mxGeometry x="354" y="405" width="47" height="20" as="geometry" />
        </mxCell>
        <mxCell id="8CnZV-VfPtxuRmqjGz2y-61" value="&amp;lt;&amp;lt;include&amp;gt;&amp;gt;" style="text;html=1;align=center;verticalAlign=middle;whiteSpace=wrap;rounded=0;" parent="1" vertex="1">
          <mxGeometry x="347.5" y="325" width="60" height="30" as="geometry" />
        </mxCell>
        <mxCell id="8CnZV-VfPtxuRmqjGz2y-62" value="&amp;lt;&amp;lt;include&amp;gt;&amp;gt;" style="text;html=1;align=center;verticalAlign=middle;whiteSpace=wrap;rounded=0;" parent="1" vertex="1">
          <mxGeometry x="421" y="248" width="60" height="30" as="geometry" />
        </mxCell>
        <mxCell id="8CnZV-VfPtxuRmqjGz2y-63" value="&amp;lt;&amp;lt;include&amp;gt;&amp;gt;" style="text;html=1;align=center;verticalAlign=middle;whiteSpace=wrap;rounded=0;" parent="1" vertex="1">
          <mxGeometry x="330" y="450" width="60" height="30" as="geometry" />
        </mxCell>
        <mxCell id="RWw8REf5lrwNztSIqT9k-2" value="&amp;lt;&amp;lt;include&amp;gt;&amp;gt;" style="text;html=1;align=center;verticalAlign=middle;whiteSpace=wrap;rounded=0;" vertex="1" parent="1">
          <mxGeometry x="261" y="248" width="60" height="30" as="geometry" />
        </mxCell>
        <mxCell id="RWw8REf5lrwNztSIqT9k-6" value="&amp;lt;&amp;lt;include&amp;gt;&amp;gt;" style="text;html=1;align=center;verticalAlign=middle;whiteSpace=wrap;rounded=0;" vertex="1" parent="1">
          <mxGeometry x="347.5" y="230" width="60" height="30" as="geometry" />
        </mxCell>
        <mxCell id="RWw8REf5lrwNztSIqT9k-10" style="rounded=0;orthogonalLoop=1;jettySize=auto;html=1;exitX=0.5;exitY=1;exitDx=0;exitDy=0;entryX=0.313;entryY=0.088;entryDx=0;entryDy=0;entryPerimeter=0;dashed=1;startArrow=classic;startFill=1;endArrow=none;" edge="1" parent="1" source="8CnZV-VfPtxuRmqjGz2y-12" target="8CnZV-VfPtxuRmqjGz2y-19">
          <mxGeometry relative="1" as="geometry" />
        </mxCell>
        <mxCell id="RWw8REf5lrwNztSIqT9k-11" value="&amp;lt;&amp;lt;include&amp;gt;&amp;gt;" style="text;html=1;align=center;verticalAlign=middle;whiteSpace=wrap;rounded=0;" vertex="1" parent="1">
          <mxGeometry x="501" y="190" width="60" height="30" as="geometry" />
        </mxCell>
      </root>
    </mxGraphModel>
  </diagram>
</mxfile>
